<svg class="animated" id="freepik_stories-publish-article" xmlns="http://www.w3.org/2000/svg" viewBox="0 0 500 500" version="1.1" xmlns:xlink="http://www.w3.org/1999/xlink" xmlns:svgjs="http://svgjs.com/svgjs"><style>svg#freepik_stories-publish-article:not(.animated) .animable {opacity: 0;}svg#freepik_stories-publish-article.animated #freepik--Furniture--inject-2 {animation: 1s 1 forwards cubic-bezier(.36,-0.01,.5,1.38) slideUp;animation-delay: 0s;}svg#freepik_stories-publish-article.animated #freepik--device-2--inject-2 {animation: 1s 1 forwards cubic-bezier(.36,-0.01,.5,1.38) slideUp;animation-delay: 0s;}svg#freepik_stories-publish-article.animated #freepik--Article--inject-2 {animation: 1s 1 forwards cubic-bezier(.36,-0.01,.5,1.38) slideUp,6s Infinite  linear floating;animation-delay: 0s,1s;}svg#freepik_stories-publish-article.animated #freepik--Character--inject-2 {animation: 1s 1 forwards cubic-bezier(.36,-0.01,.5,1.38) slideLeft;animation-delay: 0s;}svg#freepik_stories-publish-article.animated #freepik--device-1--inject-2 {animation: 1s 1 forwards cubic-bezier(.36,-0.01,.5,1.38) slideLeft;animation-delay: 0s;}            @keyframes slideUp {                0% {                    opacity: 0;                    transform: translateY(30px);                }                100% {                    opacity: 1;                    transform: inherit;                }            }                    @keyframes floating {                0% {                    opacity: 1;                    transform: translateY(0px);                }                50% {                    transform: translateY(-10px);                }                100% {                    opacity: 1;                    transform: translateY(0px);                }            }                    @keyframes slideLeft {                0% {                    opacity: 0;                    transform: translateX(-30px);                }                100% {                    opacity: 1;                    transform: translateX(0);                }            }        </style><g id="freepik--background-complete--inject-2" style="transform-origin: 250px 228.23px 0px;" class="animable"><rect x="416.78" y="398.49" width="33.12" height="0.25" style="fill: rgb(235, 235, 235); transform-origin: 433.34px 398.615px 0px;" id="elmztmcva9aji" class="animable"></rect><rect x="322.53" y="401.21" width="8.69" height="0.25" style="fill: rgb(235, 235, 235); transform-origin: 326.875px 401.335px 0px;" id="ellz6056rt43g" class="animable"></rect><rect x="396.59" y="389.21" width="19.19" height="0.25" style="fill: rgb(235, 235, 235); transform-origin: 406.185px 389.335px 0px;" id="elhq9afmulcqp" class="animable"></rect><rect x="52.46" y="390.89" width="43.19" height="0.25" style="fill: rgb(235, 235, 235); transform-origin: 74.055px 391.015px 0px;" id="elhkeclt5qzrb" class="animable"></rect><rect x="104.56" y="390.89" width="6.33" height="0.25" style="fill: rgb(235, 235, 235); transform-origin: 107.725px 391.015px 0px;" id="elmibe3l1m8wc" class="animable"></rect><rect x="131.47" y="395.11" width="93.68" height="0.25" style="fill: rgb(235, 235, 235); transform-origin: 178.31px 395.235px 0px;" id="el2w0p79v9x3z" class="animable"></rect><path d="M237,337.8H43.92a5.71,5.71,0,0,1-5.71-5.71V60.66A5.71,5.71,0,0,1,43.92,55H237a5.71,5.71,0,0,1,5.71,5.71V332.09A5.71,5.71,0,0,1,237,337.8ZM43.92,55.2a5.47,5.47,0,0,0-5.46,5.46V332.09a5.47,5.47,0,0,0,5.46,5.46H237a5.47,5.47,0,0,0,5.46-5.46V60.66A5.47,5.47,0,0,0,237,55.2Z" style="fill: rgb(235, 235, 235); transform-origin: 140.46px 196.4px 0px;" id="eliv3nc1tx22b" class="animable"></path><path d="M453.31,337.8H260.21a5.72,5.72,0,0,1-5.71-5.71V60.66A5.72,5.72,0,0,1,260.21,55h193.1A5.71,5.71,0,0,1,459,60.66V332.09A5.71,5.71,0,0,1,453.31,337.8ZM260.21,55.2a5.47,5.47,0,0,0-5.46,5.46V332.09a5.47,5.47,0,0,0,5.46,5.46h193.1a5.47,5.47,0,0,0,5.46-5.46V60.66a5.47,5.47,0,0,0-5.46-5.46Z" style="fill: rgb(235, 235, 235); transform-origin: 356.75px 196.4px 0px;" id="el7smzr8e1cij" class="animable"></path><rect y="382.4" width="500" height="0.25" style="fill: rgb(235, 235, 235); transform-origin: 250px 382.525px 0px;" id="elsyg3ypns2r" class="animable"></rect><polygon points="176.59 209.65 199.08 209.65 180.98 106.99 158.49 106.99 176.59 209.65" style="fill: rgb(250, 250, 250); transform-origin: 178.785px 158.32px 0px;" id="ela3kyrm2m6ep" class="animable"></polygon><polygon points="163.5 209.65 169.56 209.65 151.46 106.99 145.4 106.99 163.5 209.65" style="fill: rgb(250, 250, 250); transform-origin: 157.48px 158.32px 0px;" id="eljiqta4r8qkq" class="animable"></polygon><polygon points="97.69 211.43 103.92 211.43 85.32 105.93 79.09 105.93 97.69 211.43" style="fill: rgb(250, 250, 250); transform-origin: 91.505px 158.68px 0px;" id="elsr0nqbbq0ma" class="animable"></polygon><polygon points="110.11 211.43 121.85 211.43 103.25 105.93 91.5 105.93 110.11 211.43" style="fill: rgb(250, 250, 250); transform-origin: 106.675px 158.68px 0px;" id="elk1rxzeaguuh" class="animable"></polygon><path d="M141.56,105.4h73.49v106H141.56Zm67.68,5.81H147.37v94.42h61.87Z" style="fill: rgb(230, 230, 230); transform-origin: 178.305px 158.4px 0px;" id="elp9zn7noh62a" class="animable"></path><path d="M65.16,102.49H218V214.35H65.16Zm147,5.82H71V208.53H212.15Z" style="fill: rgb(245, 245, 245); transform-origin: 141.58px 158.42px 0px;" id="elul3lhkmune" class="animable"></path><g id="elxatkqjcvowe"><rect x="331.53" y="90.81" width="41.71" height="54.19" style="fill: rgb(245, 245, 245); transform-origin: 352.385px 117.905px 0px; transform: rotate(90deg);" class="animable" id="el9r0atbw7ybp"></rect></g><g id="el7npunmkwsu"><rect x="334.73" y="94.98" width="35.3" height="45.86" style="fill: rgb(235, 235, 235); transform-origin: 352.38px 117.91px 0px; transform: rotate(90deg);" class="animable" id="elei3nsq9f3l"></rect></g><g id="elw3d2e9j7og"><rect x="336.94" y="97.85" width="30.88" height="40.12" style="fill: rgb(250, 250, 250); transform-origin: 352.38px 117.91px 0px; transform: rotate(90deg);" class="animable" id="elt4djcv9htog"></rect></g><circle cx="359.67" cy="114.5" r="8.31" style="fill: rgb(240, 240, 240); transform-origin: 359.67px 114.5px 0px;" id="els183w5i76q" class="animable"></circle><circle cx="347.25" cy="119.64" r="8.31" style="fill: rgb(245, 245, 245); transform-origin: 347.25px 119.64px 0px;" id="elhlo4btowjpp" class="animable"></circle><rect x="385.47" y="110.23" width="24.82" height="32.24" style="fill: rgb(224, 224, 224); transform-origin: 397.88px 126.35px 0px;" id="elcj3hmja8bcp" class="animable"></rect><rect x="387.37" y="112.71" width="21" height="27.28" style="fill: rgb(240, 240, 240); transform-origin: 397.87px 126.35px 0px;" id="elq78h1h6g8ks" class="animable"></rect><rect x="391.09" y="117.54" width="13.56" height="17.62" style="fill: rgb(250, 250, 250); transform-origin: 397.87px 126.35px 0px;" id="elm8jcw6hdtb" class="animable"></rect><ellipse cx="306.39" cy="119.09" rx="11.84" ry="17.34" style="fill: rgb(245, 245, 245); transform-origin: 306.39px 119.09px 0px;" id="el73vtk1rmsjc" class="animable"></ellipse><ellipse cx="306.39" cy="119.09" rx="8.55" ry="12.53" style="fill: rgb(235, 235, 235); transform-origin: 306.39px 119.09px 0px;" id="elgdv7owrmdem" class="animable"></ellipse><ellipse cx="306.39" cy="119.09" rx="6.05" ry="8.86" style="fill: rgb(250, 250, 250); transform-origin: 306.39px 119.09px 0px;" id="elmsxk1eprca8" class="animable"></ellipse></g><g id="freepik--Shadow--inject-2" style="transform-origin: 245.18px 412.39px 0px;" class="animable"><ellipse id="freepik--path--inject-2" cx="245.18" cy="412.39" rx="193.89" ry="11.32" style="fill: rgb(245, 245, 245); transform-origin: 245.18px 412.39px 0px;" class="animable"></ellipse></g><g id="freepik--Furniture--inject-2" style="transform-origin: 337.355px 373.65px 0px;" class="animable"><polygon points="398.11 411.75 242.34 411.75 240.42 406.5 398.11 406.5 398.11 411.75" style="fill: rgb(38, 50, 56); transform-origin: 319.265px 409.125px 0px;" id="elun0ankxc25r" class="animable"></polygon><g id="elhtypaa9fjzv"><polygon points="398.11 411.75 242.34 411.75 240.42 406.5 398.11 406.5 398.11 411.75" style="fill: rgb(255, 255, 255); opacity: 0.2; transform-origin: 319.265px 409.125px 0px;" class="animable" id="elrj4edj40ro"></polygon></g><polygon points="430.67 411.75 398.11 411.75 398.11 406.5 432.58 406.5 430.67 411.75" style="fill: rgb(38, 50, 56); transform-origin: 415.345px 409.125px 0px;" id="elveprnpjuje8" class="animable"></polygon><rect x="411.43" y="335.55" width="30.16" height="71.38" style="fill: #407BFF; transform-origin: 426.51px 371.24px 0px;" id="eluoul5ghx14s" class="animable"></rect><g id="elqx1zxxj04nm"><rect x="411.43" y="335.55" width="30.16" height="71.38" style="fill: rgb(255, 255, 255); opacity: 0.5; transform-origin: 426.51px 371.24px 0px;" class="animable" id="elwo1h7z2evbf"></rect></g><rect x="233.12" y="335.55" width="180.35" height="71.38" style="fill: #407BFF; transform-origin: 323.295px 371.24px 0px;" id="elldwlgvsppu" class="animable"></rect><g id="elm89kvu2j5r"><rect x="233.12" y="335.55" width="180.35" height="71.38" style="fill: rgb(255, 255, 255); opacity: 0.7; transform-origin: 323.295px 371.24px 0px;" class="animable" id="el9kmmfywrc1"></rect></g><g id="elj9pxfhv4y4n"><path d="M290,341.31l-.22,1.6c-.12.83-1.22,1.46-2.54,1.46H272.1c-1.32,0-2.42-.63-2.53-1.46l-.23-1.6H239.61v18.82h80.11V341.31Z" style="fill: rgb(255, 255, 255); opacity: 0.8; transform-origin: 279.665px 350.72px 0px;" class="animable" id="elincaso12hvd"></path></g><g id="el8bncdyid2g4"><path d="M290,362.18l-.22,1.61c-.12.82-1.22,1.46-2.54,1.46H272.1c-1.32,0-2.42-.64-2.53-1.46l-.23-1.61H239.61V381h80.11V362.18Z" style="fill: rgb(255, 255, 255); opacity: 0.8; transform-origin: 279.665px 371.59px 0px;" class="animable" id="eltsgy1l6osu8"></path></g><g id="elpf9tnu9nwf"><path d="M290,383.06l-.22,1.6c-.12.83-1.22,1.47-2.54,1.47H272.1c-1.32,0-2.42-.64-2.53-1.47l-.23-1.6H239.61v18.82h80.11V383.06Z" style="fill: rgb(255, 255, 255); opacity: 0.8; transform-origin: 279.665px 392.47px 0px;" class="animable" id="elg92fk8us3bq"></path></g><g id="el52jz0cgn4ii"><path d="M376.1,341.31l-.22,1.6c-.12.83-1.22,1.46-2.54,1.46H358.22c-1.32,0-2.42-.63-2.53-1.46l-.23-1.6H325.73v18.82h80.11V341.31Z" style="fill: rgb(255, 255, 255); opacity: 0.8; transform-origin: 365.785px 350.72px 0px;" class="animable" id="el3pdu2avgy7b"></path></g><g id="elc9tkado51it"><path d="M376.1,362.18l-.22,1.61c-.12.82-1.22,1.46-2.54,1.46H358.22c-1.32,0-2.42-.64-2.53-1.46l-.23-1.61H325.73V381h80.11V362.18Z" style="fill: rgb(255, 255, 255); opacity: 0.8; transform-origin: 365.785px 371.59px 0px;" class="animable" id="elx6bin9hmcwb"></path></g><g id="elrgcqme7otam"><path d="M376.1,383.06l-.22,1.6c-.12.83-1.22,1.47-2.54,1.47H358.22c-1.32,0-2.42-.64-2.53-1.47l-.23-1.6H325.73v18.82h80.11V383.06Z" style="fill: rgb(255, 255, 255); opacity: 0.8; transform-origin: 365.785px 392.47px 0px;" class="animable" id="ele6802bm8tse"></path></g></g><g id="freepik--device-2--inject-2" style="transform-origin: 341.67px 268.405px 0px;" class="animable"><path d="M424.67,325.19h-152a7,7,0,0,1-7.07-7.74L275.1,209a8.62,8.62,0,0,1,8.42-7.75h152a7,7,0,0,1,7.07,7.75l-9.49,108.46A8.62,8.62,0,0,1,424.67,325.19Z" style="fill: rgb(38, 50, 56); transform-origin: 354.096px 263.22px 0px;" id="eljsoj4p4g2" class="animable"></path><g id="elfuirlnfrz29"><path d="M424.67,325.19h-152a7,7,0,0,1-7.07-7.74L275.1,209a8.62,8.62,0,0,1,8.42-7.75h152a7,7,0,0,1,7.07,7.75l-9.49,108.46A8.62,8.62,0,0,1,424.67,325.19Z" style="fill: rgb(255, 255, 255); opacity: 0.4; transform-origin: 354.096px 263.22px 0px;" class="animable" id="elu7us72ui1c"></path></g><path d="M421.91,325.19h-152a7,7,0,0,1-7.07-7.74L272.34,209a8.62,8.62,0,0,1,8.42-7.75h152a7,7,0,0,1,7.07,7.75l-9.49,108.46A8.62,8.62,0,0,1,421.91,325.19Z" style="fill: rgb(38, 50, 56); transform-origin: 351.336px 263.22px 0px;" id="elsyy64rdpyyg" class="animable"></path><g id="elldb1dgnmw0c"><path d="M421.91,325.19h-152a7,7,0,0,1-7.07-7.74L272.34,209a8.62,8.62,0,0,1,8.42-7.75h152a7,7,0,0,1,7.07,7.75l-9.49,108.46A8.62,8.62,0,0,1,421.91,325.19Z" style="fill: rgb(255, 255, 255); opacity: 0.7; transform-origin: 351.336px 263.22px 0px;" class="animable" id="elnod9e0emn0e"></path></g><polygon points="424.21 317.44 268.98 317.44 278.46 208.99 433.69 208.99 424.21 317.44" style="fill: #407BFF; transform-origin: 351.335px 263.215px 0px;" id="elqc15begu5j" class="animable"></polygon><g id="elcvnm758de4g"><polygon points="424.21 317.44 268.98 317.44 278.46 208.99 433.69 208.99 424.21 317.44" style="fill: rgb(255, 255, 255); opacity: 0.5; transform-origin: 351.335px 263.215px 0px;" class="animable" id="el2rf51wgoozl"></polygon></g><path d="M253.27,323.12h180a0,0,0,0,1,0,0v1.95a10.49,10.49,0,0,1-10.49,10.49H263.76a10.49,10.49,0,0,1-10.49-10.49v-1.95a0,0,0,0,1,0,0Z" style="fill: rgb(38, 50, 56); transform-origin: 343.27px 329.34px 0px;" id="eltzxh9hsjsn" class="animable"></path><g id="el5bplm7s2sn6"><path d="M253.27,323.12h180a0,0,0,0,1,0,0v1.95a10.49,10.49,0,0,1-10.49,10.49H263.76a10.49,10.49,0,0,1-10.49-10.49v-1.95a0,0,0,0,1,0,0Z" style="fill: rgb(255, 255, 255); opacity: 0.2; transform-origin: 343.27px 329.34px 0px;" class="animable" id="elmn3sa4grco"></path></g><path d="M240.71,323.12h180a0,0,0,0,1,0,0v1.95a10.49,10.49,0,0,1-10.49,10.49H251.21a10.49,10.49,0,0,1-10.49-10.49v-1.95A0,0,0,0,1,240.71,323.12Z" style="fill: rgb(38, 50, 56); transform-origin: 330.71px 329.34px 0px;" id="eltin37x5pntf" class="animable"></path><g id="elluvswpncy7d"><path d="M240.71,323.12h180a0,0,0,0,1,0,0v1.95a10.49,10.49,0,0,1-10.49,10.49H251.21a10.49,10.49,0,0,1-10.49-10.49v-1.95A0,0,0,0,1,240.71,323.12Z" style="fill: rgb(255, 255, 255); opacity: 0.5; transform-origin: 330.71px 329.34px 0px;" class="animable" id="el6ehnshgdrob"></path></g><g id="elevkqwde4psc"><path d="M314.6,323.12a7.23,7.23,0,0,0,6.27,3.62H340.6a7.24,7.24,0,0,0,6.27-3.62Z" style="opacity: 0.3; transform-origin: 330.735px 324.93px 0px;" class="animable" id="elozdpmn2xlzc"></path></g></g><g id="freepik--Article--inject-2" style="transform-origin: 338.64px 241.46px 0px;" class="animable"><path d="M415.63,297H251a4.36,4.36,0,0,1-4.41-4.84L256.38,180a5.37,5.37,0,0,1,5.25-4.83H426.28a4.35,4.35,0,0,1,4.41,4.83l-9.81,112.12A5.38,5.38,0,0,1,415.63,297Z" style="fill: #407BFF; transform-origin: 338.64px 236.085px 0px;" id="el6c55sigddhw" class="animable"></path><g id="elwxum1mhxrms"><path d="M415.63,297H251a4.36,4.36,0,0,1-4.41-4.84L256.38,180a5.37,5.37,0,0,1,5.25-4.83H426.28a4.35,4.35,0,0,1,4.41,4.83l-9.81,112.12A5.38,5.38,0,0,1,415.63,297Z" style="fill: rgb(255, 255, 255); opacity: 0.8; transform-origin: 338.64px 236.085px 0px;" class="animable" id="elwjglb43a26i"></path></g><path d="M426.28,175.21H261.63a5.37,5.37,0,0,0-5.25,4.83l-.5,5.63H430.2l.49-5.63A4.35,4.35,0,0,0,426.28,175.21Z" style="fill: #407BFF; transform-origin: 343.298px 180.44px 0px;" id="elfx1bxdle0vq" class="animable"></path><g id="elwduqr4hwohs"><path d="M426.28,175.21H261.63a5.37,5.37,0,0,0-5.25,4.83l-.5,5.63H430.2l.49-5.63A4.35,4.35,0,0,0,426.28,175.21Z" style="fill: rgb(255, 255, 255); opacity: 0.3; transform-origin: 343.298px 180.44px 0px;" class="animable" id="el2hc9p5awjdw"></path></g><path d="M266.25,180.44a2.28,2.28,0,0,1-2.22,2,1.84,1.84,0,0,1-1.85-2,2.26,2.26,0,0,1,2.21-2A1.84,1.84,0,0,1,266.25,180.44Z" style="fill: #407BFF; transform-origin: 264.215px 180.44px 0px;" id="elyr4fko06ekr" class="animable"></path><path d="M273.32,180.44a2.27,2.27,0,0,1-2.21,2,1.84,1.84,0,0,1-1.86-2,2.27,2.27,0,0,1,2.21-2A1.83,1.83,0,0,1,273.32,180.44Z" style="fill: #407BFF; transform-origin: 271.286px 180.44px 0px;" id="el9nqihvk3ouk" class="animable"></path><path d="M280.4,180.44a2.28,2.28,0,0,1-2.22,2,1.84,1.84,0,0,1-1.85-2,2.25,2.25,0,0,1,2.21-2A1.84,1.84,0,0,1,280.4,180.44Z" style="fill: #407BFF; transform-origin: 278.365px 180.44px 0px;" id="elhgnv4ggp5bh" class="animable"></path><path d="M326.63,197.74h-3l-.7,1.39h-1.54l3.47-6.51h1.49l2.34,6.51h-1.58Zm-.38-1.15-.81-2.49-1.25,2.49Z" style="fill: rgb(38, 50, 56); transform-origin: 325.04px 195.875px 0px;" id="el85pl8fn8pta" class="animable"></path><path d="M333.49,199.13l-1.1-1.81H331l-.16,1.81h-1.51l.57-6.51h2.82a3.49,3.49,0,0,1,1.48.29,2,2,0,0,1,.91.82,2.12,2.12,0,0,1,.23,1.25,2.29,2.29,0,0,1-.46,1.25,2.49,2.49,0,0,1-1.06.81l1.28,2.09Zm.06-5a1.47,1.47,0,0,0-1-.29h-1.23l-.2,2.27h1.23a1.67,1.67,0,0,0,1.06-.3,1.19,1.19,0,0,0,.43-.84A1,1,0,0,0,333.55,194.14Z" style="fill: rgb(38, 50, 56); transform-origin: 332.343px 195.875px 0px;" id="el7wik7f756oo" class="animable"></path><path d="M337.9,193.85h-2.09l.11-1.23h5.68l-.11,1.23H339.4l-.46,5.28h-1.51Z" style="fill: rgb(38, 50, 56); transform-origin: 338.705px 195.875px 0px;" id="elkv95amuf7op" class="animable"></path><path d="M342.41,192.62h1.5l-.57,6.51h-1.5Z" style="fill: rgb(38, 50, 56); transform-origin: 342.875px 195.875px 0px;" id="elq1xr786u1pl" class="animable"></path><path d="M346.23,198.81a2.85,2.85,0,0,1-1.16-1.2,3.22,3.22,0,0,1-.31-1.74,3.51,3.51,0,0,1,.62-1.73,3.62,3.62,0,0,1,1.37-1.2,3.93,3.93,0,0,1,1.84-.43,3.77,3.77,0,0,1,1.51.29,2.74,2.74,0,0,1,1.07.86l-1,.89a1.92,1.92,0,0,0-1.57-.76,2.28,2.28,0,0,0-1.11.27,2,2,0,0,0-.8.74,2.17,2.17,0,0,0-.36,1.07,2,2,0,0,0,.17,1.08,1.61,1.61,0,0,0,.67.74,2.06,2.06,0,0,0,1.06.27,2.31,2.31,0,0,0,1.71-.77l.88.89a3.27,3.27,0,0,1-1.22.86,4,4,0,0,1-1.57.3A3.5,3.5,0,0,1,346.23,198.81Z" style="fill: rgb(38, 50, 56); transform-origin: 347.957px 195.876px 0px;" id="eldg257wqatre" class="animable"></path><path d="M352.28,192.62h1.5l-.46,5.28h3.27l-.11,1.23h-4.77Z" style="fill: rgb(38, 50, 56); transform-origin: 354.15px 195.875px 0px;" id="elp3rok6m1p7" class="animable"></path><path d="M362.48,197.92l-.11,1.21h-5l.57-6.51h4.92l-.11,1.21h-3.42l-.13,1.41h3l-.1,1.17h-3l-.13,1.51Z" style="fill: rgb(38, 50, 56); transform-origin: 360.115px 195.875px 0px;" id="el1dd9boje4z5i" class="animable"></path><path d="M320.28,264.58h35.14c1.12,0,1.27-1.74.15-1.74H320.43c-1.12,0-1.27,1.74-.15,1.74Z" style="fill: rgb(38, 50, 56); transform-origin: 337.925px 263.71px 0px;" id="el2474y1vc91q" class="animable"></path><path d="M319.65,271.77h30c1.12,0,1.28-1.74.15-1.74h-30c-1.13,0-1.28,1.74-.16,1.74Z" style="fill: rgb(38, 50, 56); transform-origin: 334.722px 270.9px 0px;" id="elcba5hlbmgrp" class="animable"></path><path d="M319,279h33.67c1.12,0,1.27-1.74.15-1.74H319.18c-1.13,0-1.28,1.74-.16,1.74Z" style="fill: rgb(38, 50, 56); transform-origin: 335.921px 278.13px 0px;" id="elvtydufo2teq" class="animable"></path><path d="M318.39,286.15h31.46c1.12,0,1.28-1.75.15-1.75H318.55c-1.13,0-1.28,1.75-.16,1.75Z" style="fill: rgb(38, 50, 56); transform-origin: 334.198px 285.275px 0px;" id="elw6zdug5s3y" class="animable"></path><path d="M270.55,264.58h34.6c1.12,0,1.28-1.74.15-1.74H270.71c-1.13,0-1.28,1.74-.16,1.74Z" style="fill: rgb(38, 50, 56); transform-origin: 287.928px 263.71px 0px;" id="elwxpst761acp" class="animable"></path><path d="M269.92,271.77h34.6c1.13,0,1.28-1.74.16-1.74h-34.6c-1.13,0-1.28,1.74-.16,1.74Z" style="fill: rgb(38, 50, 56); transform-origin: 287.3px 270.9px 0px;" id="el25mjiezbp76" class="animable"></path><path d="M269.3,279h39c1.12,0,1.27-1.74.15-1.74h-39c-1.12,0-1.28,1.74-.15,1.74Z" style="fill: rgb(38, 50, 56); transform-origin: 288.873px 278.13px 0px;" id="elbrjwapdkvo" class="animable"></path><path d="M268.67,286.15h31.7c1.13,0,1.28-1.75.16-1.75H268.82c-1.12,0-1.28,1.75-.15,1.75Z" style="fill: rgb(38, 50, 56); transform-origin: 284.598px 285.275px 0px;" id="el20539g9tjek" class="animable"></path><path d="M271.81,250.2h34.6c1.12,0,1.28-1.74.15-1.74H272c-1.12,0-1.27,1.74-.15,1.74Z" style="fill: rgb(38, 50, 56); transform-origin: 289.207px 249.33px 0px;" id="elv086jrv0bph" class="animable"></path><path d="M271.18,257.39h37.54c1.12,0,1.28-1.74.16-1.74H271.34c-1.13,0-1.28,1.74-.16,1.74Z" style="fill: rgb(38, 50, 56); transform-origin: 290.028px 256.52px 0px;" id="eluq0migfzcjg" class="animable"></path><path d="M366.13,264.58H402c1.13,0,1.28-1.74.16-1.74H366.29c-1.13,0-1.28,1.74-.16,1.74Z" style="fill: rgb(38, 50, 56); transform-origin: 384.145px 263.71px 0px;" id="elw4bwafm0om" class="animable"></path><path d="M365.5,271.77h32.2c1.12,0,1.27-1.74.15-1.74H365.66c-1.13,0-1.28,1.74-.16,1.74Z" style="fill: rgb(38, 50, 56); transform-origin: 381.676px 270.9px 0px;" id="el8ocgis889w" class="animable"></path><path d="M364.88,279h34.39c1.13,0,1.28-1.74.16-1.74H365c-1.12,0-1.28,1.74-.15,1.74Z" style="fill: rgb(38, 50, 56); transform-origin: 382.138px 278.13px 0px;" id="elp5gmpoy3uv" class="animable"></path><path d="M364.25,286.15h32.92c1.13,0,1.28-1.75.16-1.75H364.4c-1.12,0-1.28,1.75-.15,1.75Z" style="fill: rgb(38, 50, 56); transform-origin: 380.787px 285.275px 0px;" id="el6hv3a9mut6w" class="animable"></path><path d="M275.29,210.46h39c1.5,0,1.7-2.33.2-2.33h-39c-1.49,0-1.7,2.33-.2,2.33Z" style="fill: rgb(38, 50, 56); transform-origin: 294.892px 209.295px 0px;" id="elcu1bz3ss0se" class="animable"></path><path d="M274.66,217.65H310c1.5,0,1.71-2.33.21-2.33H274.86c-1.49,0-1.7,2.33-.2,2.33Z" style="fill: rgb(38, 50, 56); transform-origin: 292.435px 216.485px 0px;" id="el02v4nsausses" class="animable"></path><path d="M274,224.84H310.1c1.5,0,1.7-2.33.2-2.33H274.23c-1.49,0-1.7,2.33-.2,2.33Z" style="fill: rgb(38, 50, 56); transform-origin: 292.167px 223.675px 0px;" id="elmkfff7hvc4m" class="animable"></path><path d="M273.4,232h30.19c1.5,0,1.7-2.33.2-2.33H273.61c-1.5,0-1.71,2.33-.21,2.33Z" style="fill: rgb(38, 50, 56); transform-origin: 288.597px 230.835px 0px;" id="el0fg47ynj81v6" class="animable"></path><g id="elzvc7o06ypva"><g style="opacity: 0.2; transform-origin: 293.947px 220.065px 0px;" class="animable" id="elwq0srnrvgb8"><path d="M275.29,210.46h39c1.5,0,1.7-2.33.2-2.33h-39c-1.49,0-1.7,2.33-.2,2.33Z" style="fill: rgb(255, 255, 255); transform-origin: 294.892px 209.295px 0px;" id="els8rfdg97nbq" class="animable"></path><path d="M274.66,217.65H310c1.5,0,1.71-2.33.21-2.33H274.86c-1.49,0-1.7,2.33-.2,2.33Z" style="fill: rgb(255, 255, 255); transform-origin: 292.435px 216.485px 0px;" id="el59i871hvkws" class="animable"></path><path d="M274,224.84H310.1c1.5,0,1.7-2.33.2-2.33H274.23c-1.49,0-1.7,2.33-.2,2.33Z" style="fill: rgb(255, 255, 255); transform-origin: 292.167px 223.675px 0px;" id="el2qziyg895re" class="animable"></path><path d="M273.4,232h30.19c1.5,0,1.7-2.33.2-2.33H273.61c-1.5,0-1.71,2.33-.21,2.33Z" style="fill: rgb(255, 255, 255); transform-origin: 288.597px 230.835px 0px;" id="elw0ndruuur6m" class="animable"></path></g></g><g id="el55rxv4ec0kc"><g style="opacity: 0.2; transform-origin: 337.925px 263.71px 0px;" class="animable" id="eldr44hfbc2vs"><path d="M320.28,264.58h35.14c1.12,0,1.27-1.74.15-1.74H320.43c-1.12,0-1.27,1.74-.15,1.74Z" style="fill: rgb(255, 255, 255); transform-origin: 337.925px 263.71px 0px;" id="elta4hjrcper" class="animable"></path></g></g><g id="el48i6twr8xax"><g style="opacity: 0.2; transform-origin: 334.722px 270.9px 0px;" class="animable" id="eldsmoyw3nik"><path d="M319.65,271.77h30c1.12,0,1.28-1.74.15-1.74h-30c-1.13,0-1.28,1.74-.16,1.74Z" style="fill: rgb(255, 255, 255); transform-origin: 334.722px 270.9px 0px;" id="elsdhww15i2wl" class="animable"></path></g></g><g id="el9rp3v3gpcxo"><g style="opacity: 0.2; transform-origin: 335.921px 278.13px 0px;" class="animable" id="elpcvcp6js3y"><path d="M319,279h33.67c1.12,0,1.27-1.74.15-1.74H319.18c-1.13,0-1.28,1.74-.16,1.74Z" style="fill: rgb(255, 255, 255); transform-origin: 335.921px 278.13px 0px;" id="elacrddccxk24" class="animable"></path></g></g><g id="el5nyzbm9afar"><g style="opacity: 0.2; transform-origin: 334.198px 285.275px 0px;" class="animable" id="elsicnvbtdqck"><path d="M318.39,286.15h31.46c1.12,0,1.28-1.75.15-1.75H318.55c-1.13,0-1.28,1.75-.16,1.75Z" style="fill: rgb(255, 255, 255); transform-origin: 334.198px 285.275px 0px;" id="eldt9lki9g9qu" class="animable"></path></g></g><g id="el3wofrrubovp"><g style="opacity: 0.2; transform-origin: 287.928px 263.71px 0px;" class="animable" id="elvf9xdiv6v6e"><path d="M270.55,264.58h34.6c1.12,0,1.28-1.74.15-1.74H270.71c-1.13,0-1.28,1.74-.16,1.74Z" style="fill: rgb(255, 255, 255); transform-origin: 287.928px 263.71px 0px;" id="el8rwm9k7n81i" class="animable"></path></g></g><g id="ely71w0rgpg6"><g style="opacity: 0.2; transform-origin: 287.3px 270.9px 0px;" class="animable" id="el7sim04obt9q"><path d="M269.92,271.77h34.6c1.13,0,1.28-1.74.16-1.74h-34.6c-1.13,0-1.28,1.74-.16,1.74Z" style="fill: rgb(255, 255, 255); transform-origin: 287.3px 270.9px 0px;" id="el6ygsud472t7" class="animable"></path></g></g><g id="eltta92cgxw2f"><g style="opacity: 0.2; transform-origin: 288.873px 278.13px 0px;" class="animable" id="el4gc055c28l5"><path d="M269.3,279h39c1.12,0,1.27-1.74.15-1.74h-39c-1.12,0-1.28,1.74-.15,1.74Z" style="fill: rgb(255, 255, 255); transform-origin: 288.873px 278.13px 0px;" id="elu3ml655r8xc" class="animable"></path></g></g><g id="elm9l117d72ik"><g style="opacity: 0.2; transform-origin: 284.598px 285.275px 0px;" class="animable" id="ellb4wqzjb1e"><path d="M268.67,286.15h31.7c1.13,0,1.28-1.75.16-1.75H268.82c-1.12,0-1.28,1.75-.15,1.75Z" style="fill: rgb(255, 255, 255); transform-origin: 284.598px 285.275px 0px;" id="elr494yeevsm" class="animable"></path></g></g><g id="elfnvam2jqbqo"><g style="opacity: 0.2; transform-origin: 289.207px 249.33px 0px;" class="animable" id="eldvgwt9a9nqq"><path d="M271.81,250.2h34.6c1.12,0,1.28-1.74.15-1.74H272c-1.12,0-1.27,1.74-.15,1.74Z" style="fill: rgb(255, 255, 255); transform-origin: 289.207px 249.33px 0px;" id="el44dbvmfwfge" class="animable"></path></g></g><g id="eli7tou5dcnpk"><g style="opacity: 0.2; transform-origin: 290.028px 256.52px 0px;" class="animable" id="elr5njox25f3"><path d="M271.18,257.39h37.54c1.12,0,1.28-1.74.16-1.74H271.34c-1.13,0-1.28,1.74-.16,1.74Z" style="fill: rgb(255, 255, 255); transform-origin: 290.028px 256.52px 0px;" id="eldybj2zk7hub" class="animable"></path></g></g><g id="elvkzip9zof5"><g style="opacity: 0.2; transform-origin: 384.145px 263.71px 0px;" class="animable" id="elr2t5qul9cmm"><path d="M366.13,264.58H402c1.13,0,1.28-1.74.16-1.74H366.29c-1.13,0-1.28,1.74-.16,1.74Z" style="fill: rgb(255, 255, 255); transform-origin: 384.145px 263.71px 0px;" id="eln0ecgqkfm5" class="animable"></path></g></g><g id="el275oigx9cvq"><g style="opacity: 0.2; transform-origin: 381.676px 270.9px 0px;" class="animable" id="eluopv69bw3tb"><path d="M365.5,271.77h32.2c1.12,0,1.27-1.74.15-1.74H365.66c-1.13,0-1.28,1.74-.16,1.74Z" style="fill: rgb(255, 255, 255); transform-origin: 381.676px 270.9px 0px;" id="elk0z0a12cjs8" class="animable"></path></g></g><g id="ell51fqgi6sli"><g style="opacity: 0.2; transform-origin: 382.138px 278.13px 0px;" class="animable" id="el6d2xulyaffd"><path d="M364.88,279h34.39c1.13,0,1.28-1.74.16-1.74H365c-1.12,0-1.28,1.74-.15,1.74Z" style="fill: rgb(255, 255, 255); transform-origin: 382.138px 278.13px 0px;" id="el2g177kmymwn" class="animable"></path></g></g><g id="el03ol4nzhkdx1"><g style="opacity: 0.2; transform-origin: 380.787px 285.275px 0px;" class="animable" id="elxpzhvj6prvo"><path d="M364.25,286.15h32.92c1.13,0,1.28-1.75.16-1.75H364.4c-1.12,0-1.28,1.75-.15,1.75Z" style="fill: rgb(255, 255, 255); transform-origin: 380.787px 285.275px 0px;" id="el9vh5qdijnug" class="animable"></path></g></g><g id="elzugid7tpht"><polygon points="320.21 256.52 402.71 256.52 407.11 206.19 324.62 206.19 320.21 256.52" style="fill: rgb(255, 255, 255); opacity: 0.5; transform-origin: 363.66px 231.355px 0px;" class="animable" id="elrxpanlhgwfe"></polygon></g><polygon points="348.66 222.51 324.78 256.52 366.59 256.52 348.66 222.51" style="fill: #407BFF; transform-origin: 345.685px 239.515px 0px;" id="el40vh8nl3hor" class="animable"></polygon><g id="eliqgdmi3xshr"><polygon points="348.66 222.51 324.78 256.52 366.59 256.52 348.66 222.51" style="fill: rgb(255, 255, 255); opacity: 0.2; transform-origin: 345.685px 239.515px 0px;" class="animable" id="eli7976xgaoq"></polygon></g><polygon points="377.19 214.12 347.42 256.52 399.54 256.52 377.19 214.12" style="fill: #407BFF; transform-origin: 373.48px 235.32px 0px;" id="el0v7kkjxadipq" class="animable"></polygon><g id="elryc5atfmqe"><polygon points="377.19 214.12 347.42 256.52 399.54 256.52 377.19 214.12" style="fill: rgb(255, 255, 255); opacity: 0.6; transform-origin: 373.48px 235.32px 0px;" class="animable" id="elrur15v0hko"></polygon></g><path d="M367.09,216.48a5.64,5.64,0,0,1-5.52,5.08,4.58,4.58,0,0,1-4.63-5.08,5.65,5.65,0,0,1,5.52-5.07A4.57,4.57,0,0,1,367.09,216.48Z" style="fill: #407BFF; transform-origin: 362.015px 216.485px 0px;" id="elhzmgvaobe8" class="animable"></path><g id="el6qtb8s4locu"><path d="M367.09,216.48a5.64,5.64,0,0,1-5.52,5.08,4.58,4.58,0,0,1-4.63-5.08,5.65,5.65,0,0,1,5.52-5.07A4.57,4.57,0,0,1,367.09,216.48Z" style="fill: rgb(255, 255, 255); opacity: 0.2; transform-origin: 362.015px 216.485px 0px;" class="animable" id="elpglx4f1t17n"></path></g><path d="M366.36,307.75h-68a4.47,4.47,0,0,1-4.52-5l.48-5.55a5.52,5.52,0,0,1,5.39-5h68a4.47,4.47,0,0,1,4.52,5l-.49,5.55A5.52,5.52,0,0,1,366.36,307.75Z" style="fill: #407BFF; transform-origin: 333.035px 299.975px 0px;" id="elulx0dzqx43h" class="animable"></path><g id="el0v1tq43cocqa"><g style="opacity: 0.8; transform-origin: 333.035px 300.06px 0px;" class="animable" id="elvkv6rrd5yyb"><path d="M316.76,297.05a1.92,1.92,0,0,1,.91.82,2,2,0,0,1,.23,1.25,2.39,2.39,0,0,1-.45,1.25,2.46,2.46,0,0,1-1.05.82,3.87,3.87,0,0,1-1.53.29h-1.31l-.16,1.79h-1.51l.57-6.51h2.82A3.49,3.49,0,0,1,316.76,297.05ZM316,300a1.15,1.15,0,0,0,.43-.84,1,1,0,0,0-.28-.84,1.52,1.52,0,0,0-1-.29h-1.23l-.2,2.26h1.23A1.71,1.71,0,0,0,316,300Z" style="fill: rgb(255, 255, 255); transform-origin: 314.905px 300.015px 0px;" id="elpyb5x5wvxk" class="animable"></path><path d="M319.36,302.61a2.74,2.74,0,0,1-.58-2.2l.32-3.65h1.5l-.31,3.59c-.1,1.17.33,1.75,1.3,1.75a1.47,1.47,0,0,0,1.11-.42,2.11,2.11,0,0,0,.49-1.33l.32-3.59H325l-.32,3.65a3.27,3.27,0,0,1-1,2.2,3.18,3.18,0,0,1-2.24.77A2.71,2.71,0,0,1,319.36,302.61Z" style="fill: rgb(255, 255, 255); transform-origin: 321.87px 300.073px 0px;" id="elisqrymz5cj" class="animable"></path><path d="M331.82,300.48a1.52,1.52,0,0,1,.22,1,1.66,1.66,0,0,1-.78,1.31,3.58,3.58,0,0,1-2,.46h-3.37l.57-6.51h3.19a2.85,2.85,0,0,1,1.78.46,1.29,1.29,0,0,1,.53,1.23,1.59,1.59,0,0,1-.3.85,1.81,1.81,0,0,1-.69.59A1.5,1.5,0,0,1,331.82,300.48Zm-3.94-2.58-.13,1.53h1.5a1.58,1.58,0,0,0,.86-.2.72.72,0,0,0,.34-.57.58.58,0,0,0-.24-.57,1.43,1.43,0,0,0-.83-.19Zm2.3,4a.72.72,0,0,0,.36-.6c0-.54-.33-.81-1.13-.81h-1.76l-.14,1.61h1.76A1.73,1.73,0,0,0,330.18,301.94Z" style="fill: rgb(255, 255, 255); transform-origin: 328.971px 299.995px 0px;" id="elma8safoprd" class="animable"></path><path d="M333.6,296.76h1.51l-.46,5.28h3.26l-.11,1.23H333Z" style="fill: rgb(255, 255, 255); transform-origin: 335.455px 300.015px 0px;" id="eltu9ofmjncfd" class="animable"></path><path d="M339.22,296.76h1.51l-.57,6.51h-1.51Z" style="fill: rgb(255, 255, 255); transform-origin: 339.69px 300.015px 0px;" id="eluz3t3dzj72g" class="animable"></path><path d="M342.36,303.17a3,3,0,0,1-1.11-.54l.61-1.13a3.4,3.4,0,0,0,.95.49,3.67,3.67,0,0,0,1.14.18,1.87,1.87,0,0,0,1-.19.63.63,0,0,0,.36-.5.46.46,0,0,0-.15-.39,1.36,1.36,0,0,0-.45-.25,7.47,7.47,0,0,0-.75-.2,12,12,0,0,1-1.18-.35,1.81,1.81,0,0,1-.77-.57,1.49,1.49,0,0,1-.25-1,2,2,0,0,1,.4-1,2.29,2.29,0,0,1,1-.73,4,4,0,0,1,1.54-.27,4.81,4.81,0,0,1,1.2.15,3.31,3.31,0,0,1,1,.43l-.57,1.14a3.4,3.4,0,0,0-1.76-.51,1.84,1.84,0,0,0-.95.2.69.69,0,0,0-.35.54.47.47,0,0,0,.3.5,4.82,4.82,0,0,0,1,.32,12.32,12.32,0,0,1,1.19.35,1.84,1.84,0,0,1,.76.56,1.38,1.38,0,0,1,.25,1,1.82,1.82,0,0,1-.4,1,2.33,2.33,0,0,1-1,.73,4,4,0,0,1-1.54.27A5.12,5.12,0,0,1,342.36,303.17Z" style="fill: rgb(255, 255, 255); transform-origin: 344.075px 300.06px 0px;" id="elb7147b4qy3g" class="animable"></path><path d="M354.18,296.76l-.57,6.51H352.1l.24-2.67h-3l-.23,2.67h-1.51l.57-6.51h1.51l-.23,2.57h3l.22-2.57Z" style="fill: rgb(255, 255, 255); transform-origin: 350.89px 300.015px 0px;" id="elreu8njs2jfk" class="animable"></path></g></g></g><g id="freepik--Character--inject-2" style="transform-origin: 131.204px 306.288px 0px;" class="animable"><path d="M82.89,331.37h37.77l-7.82-53.24C110.87,264.69,99,254,86.12,254H76.33c-12.89,0-22.12,10.72-20.79,24.16l3,30Z" style="fill: #407BFF; transform-origin: 88.0363px 292.685px 0px;" id="eljzqirmbdl8p" class="animable"></path><g id="ell9kbr53qno"><path d="M82.89,331.37h37.77l-7.82-53.24C110.87,264.69,99,254,86.12,254H76.33c-12.89,0-22.12,10.72-20.79,24.16l3,30Z" style="fill: rgb(255, 255, 255); opacity: 0.1; transform-origin: 88.0363px 292.685px 0px;" class="animable" id="elgxsbamu2uj"></path></g><path d="M131.79,331.37H71.93l-5.26-53.24C65.35,264.69,74.57,254,87.47,254h9.78c12.9,0,24.76,10.72,26.73,24.16Z" style="fill: #407BFF; transform-origin: 99.1671px 292.685px 0px;" id="eli0hqsr7lktl" class="animable"></path><g id="ele1wq672ok56"><path d="M131.79,331.37H71.93l-5.26-53.24C65.35,264.69,74.57,254,87.47,254h9.78c12.9,0,24.76,10.72,26.73,24.16Z" style="fill: rgb(255, 255, 255); opacity: 0.3; transform-origin: 99.1671px 292.685px 0px;" class="animable" id="elqykeh23h5l"></path></g><path d="M122.37,349.66c13.42-.09,26.86-6,35.41-16.47a47.62,47.62,0,0,0,11-30c0-4.25-3.76-8.32-8.12-8.12H135.45a8.27,8.27,0,0,0-8.12,8.12c0,.91,0,1.82-.1,2.74,0,.51-.36,2.5-.18,1.62a45,45,0,0,1-1.3,5.36c-.21.64-.45,1.28-.69,1.91.14-.4-.53,1.16-.73,1.56a43.4,43.4,0,0,1-2.81,4.69c0,.07-.15.22-.25.37s-.35.45-.43.54c-.55.65-1.11,1.29-1.7,1.91s-1.35,1.37-2.06,2l-1,.84-.81.64c-.45.31-1.24.86-1.41,1-.72.47-1.45.92-2.2,1.34s-1.29.68-1.94,1c-1.34-.7-2.69-1.35-4-2.17-.73-.46-1.41-1-2.12-1.46,1.51,1-.44-.37-.86-.74a40.11,40.11,0,0,1-4-4.1l-.33-.42c.2.24-.61-.82-.73-1-.55-.79-1.07-1.61-1.55-2.45s-1-1.69-1.37-2.56c-.19-.39-.36-.79-.54-1.18.84,1.75,0-.18-.16-.47a39,39,0,0,1-1.59-5.71c-.08-.44-.13-.89-.23-1.32.42,1.93,0-.15,0-.52-.1-1.13-.14-2.27-.15-3.41,0-4.25-3.71-8.32-8.12-8.12H58.7a8.25,8.25,0,0,0-8.12,8.12A47.16,47.16,0,0,0,81.49,347a43.5,43.5,0,0,0,16.15,2.7Z" style="fill: #407BFF; transform-origin: 109.68px 322.388px 0px;" id="elaiozkz1mkmw" class="animable"></path><g id="elgx28xx5851u"><path d="M122.37,349.66c13.42-.09,26.86-6,35.41-16.47a47.62,47.62,0,0,0,11-30c0-4.25-3.76-8.32-8.12-8.12H135.45a8.27,8.27,0,0,0-8.12,8.12c0,.91,0,1.82-.1,2.74,0,.51-.36,2.5-.18,1.62a45,45,0,0,1-1.3,5.36c-.21.64-.45,1.28-.69,1.91.14-.4-.53,1.16-.73,1.56a43.4,43.4,0,0,1-2.81,4.69c0,.07-.15.22-.25.37s-.35.45-.43.54c-.55.65-1.11,1.29-1.7,1.91s-1.35,1.37-2.06,2l-1,.84-.81.64c-.45.31-1.24.86-1.41,1-.72.47-1.45.92-2.2,1.34s-1.29.68-1.94,1c-1.34-.7-2.69-1.35-4-2.17-.73-.46-1.41-1-2.12-1.46,1.51,1-.44-.37-.86-.74a40.11,40.11,0,0,1-4-4.1l-.33-.42c.2.24-.61-.82-.73-1-.55-.79-1.07-1.61-1.55-2.45s-1-1.69-1.37-2.56c-.19-.39-.36-.79-.54-1.18.84,1.75,0-.18-.16-.47a39,39,0,0,1-1.59-5.71c-.08-.44-.13-.89-.23-1.32.42,1.93,0-.15,0-.52-.1-1.13-.14-2.27-.15-3.41,0-4.25-3.71-8.32-8.12-8.12H58.7a8.25,8.25,0,0,0-8.12,8.12A47.16,47.16,0,0,0,81.49,347a43.5,43.5,0,0,0,16.15,2.7Z" style="fill: rgb(255, 255, 255); opacity: 0.4; transform-origin: 109.68px 322.388px 0px;" class="animable" id="el0la9zvavly4q"></path></g><path d="M152.58,303.17c0,.91,0,1.82-.09,2.74,0,.57-.45,3-.1,1.19a46,46,0,0,1-1.39,5.79c-.27.83-.57,1.64-.89,2.45.65-1.66-.28.54-.52,1a41.92,41.92,0,0,1-2.82,4.69c-.14.21-.94,1.33-.31.48s-.2.23-.36.43c-.56.65-1.12,1.29-1.71,1.91s-1.35,1.37-2.06,2l-1,.84c-.17.15-1.6,1.24-.68.57.75-.55-1.27.86-1.54,1-.72.47-1.45.92-2.2,1.34s-1.53.8-2.3,1.18c-.23.12-1.51.68-.52.25s-.63.24-.84.31a38.5,38.5,0,0,1-5.06,1.46c-.55.11-3,.48-1.14.26q-1.68.21-3.39.27a43.26,43.26,0,0,1-5.46-.19c-.43,0-1.5-.33.15,0-.43-.09-.88-.15-1.31-.23-1-.19-1.94-.42-2.9-.69s-1.68-.5-2.5-.79c-.41-.14-.81-.32-1.23-.45-1.12-.35,1.17.62.15.05-1.61-.88-3.27-1.62-4.82-2.61-.73-.46-1.41-1-2.12-1.46,1.51,1-.44-.37-.86-.74a40.11,40.11,0,0,1-4-4.1l-.81-1c1.22,1.52-.09-.19-.25-.42-.55-.79-1.07-1.61-1.55-2.45s-1-1.69-1.37-2.56c-.19-.39-.36-.79-.54-1.18.84,1.75,0-.18-.16-.47a39,39,0,0,1-1.59-5.71c-.08-.44-.13-.89-.23-1.32.42,1.93,0-.15,0-.52-.1-1.13-.14-2.27-.15-3.41,0-4.25-3.71-8.32-8.12-8.12a8.24,8.24,0,0,0-8.11,8.12A47.14,47.14,0,0,0,106.75,347c17.65,6.6,39.09.83,51-13.76a47.62,47.62,0,0,0,11-30c0-4.25-3.76-8.32-8.12-8.12a8.27,8.27,0,0,0-8.12,8.12Z" style="fill: #407BFF; transform-origin: 122.315px 322.333px 0px;" id="elzwdd8q7h1f" class="animable"></path><g id="el8ch4bl5ikpc"><g style="opacity: 0.6; transform-origin: 122.315px 322.333px 0px;" class="animable" id="elew48asrx3g"><path d="M152.58,303.17c0,.91,0,1.82-.09,2.74,0,.57-.45,3-.1,1.19a46,46,0,0,1-1.39,5.79c-.27.83-.57,1.64-.89,2.45.65-1.66-.28.54-.52,1a41.92,41.92,0,0,1-2.82,4.69c-.14.21-.94,1.33-.31.48s-.2.23-.36.43c-.56.65-1.12,1.29-1.71,1.91s-1.35,1.37-2.06,2l-1,.84c-.17.15-1.6,1.24-.68.57.75-.55-1.27.86-1.54,1-.72.47-1.45.92-2.2,1.34s-1.53.8-2.3,1.18c-.23.12-1.51.68-.52.25s-.63.24-.84.31a38.5,38.5,0,0,1-5.06,1.46c-.55.11-3,.48-1.14.26q-1.68.21-3.39.27a43.26,43.26,0,0,1-5.46-.19c-.43,0-1.5-.33.15,0-.43-.09-.88-.15-1.31-.23-1-.19-1.94-.42-2.9-.69s-1.68-.5-2.5-.79c-.41-.14-.81-.32-1.23-.45-1.12-.35,1.17.62.15.05-1.61-.88-3.27-1.62-4.82-2.61-.73-.46-1.41-1-2.12-1.46,1.51,1-.44-.37-.86-.74a40.11,40.11,0,0,1-4-4.1l-.81-1c1.22,1.52-.09-.19-.25-.42-.55-.79-1.07-1.61-1.55-2.45s-1-1.69-1.37-2.56c-.19-.39-.36-.79-.54-1.18.84,1.75,0-.18-.16-.47a39,39,0,0,1-1.59-5.71c-.08-.44-.13-.89-.23-1.32.42,1.93,0-.15,0-.52-.1-1.13-.14-2.27-.15-3.41,0-4.25-3.71-8.32-8.12-8.12a8.24,8.24,0,0,0-8.11,8.12A47.14,47.14,0,0,0,106.75,347c17.65,6.6,39.09.83,51-13.76a47.62,47.62,0,0,0,11-30c0-4.25-3.76-8.32-8.12-8.12a8.27,8.27,0,0,0-8.12,8.12Z" style="fill: rgb(255, 255, 255); transform-origin: 122.315px 322.333px 0px;" id="elyxd677zwsor" class="animable"></path></g></g><path d="M112.11,400.67l-.93-.55V349.66a2.19,2.19,0,0,0-2.19-2.18h-6.16a2.18,2.18,0,0,0-2.18,2.18v50.46l-.94.55A39.54,39.54,0,0,1,79.84,406h0a5.42,5.42,0,0,0-5.42,5.41h63A5.41,5.41,0,0,0,132,406h0A39.54,39.54,0,0,1,112.11,400.67Z" style="fill: #407BFF; transform-origin: 105.92px 379.445px 0px;" id="elbe1yg2wi5pw" class="animable"></path><g id="elgypo8uf64kk"><path d="M111.18,355.06v-5.4a2.19,2.19,0,0,0-2.19-2.18h-6.16a2.18,2.18,0,0,0-2.18,2.18v5.4Z" style="opacity: 0.2; transform-origin: 105.915px 351.27px 0px;" class="animable" id="elxfddb4yg7b"></path></g><path d="M117,208s-11.73,12.5-4.76,21.93l-.17-3.2s1,5.74,16,6.81,11.13-8.68,11.13-8.68,1,2.86,3.24,3.18c0,0-2.82-3.14-1.77-9.07s5.37-9-1.47-14c0,0,.56-5.4-11.5-4S117,208,117,208Z" style="fill: rgb(46, 53, 58); transform-origin: 126.505px 217.18px 0px;" id="elx3kiv35iraa" class="animable"></path><path d="M146.56,240.27c-2.13-.26-3.49-3.3-3.2-5.64s2.36-5,4.49-4.69a1.57,1.57,0,0,1,1.11.61c.62.8.43,2.11.2,3.78,0,.32-.09.66-.14,1s-.08.69-.11,1c-.18,1.67-.33,3-1.12,3.61A1.57,1.57,0,0,1,146.56,240.27Zm1.11-8.89c-.84-.1-2.59,1.24-2.86,3.43s1.09,3.91,1.93,4c.11,0,.13,0,.15,0,.31-.25.45-1.57.57-2.63,0-.33.07-.67.12-1s.09-.7.14-1c.14-1.05.33-2.37.09-2.68C147.8,231.42,147.78,231.4,147.67,231.38Z" style="fill: #407BFF; transform-origin: 146.35px 235.102px 0px;" id="elvj1iarkmawe" class="animable"></path><g id="elf53y78lp3rq"><g style="opacity: 0.5; transform-origin: 146.35px 235.102px 0px;" class="animable" id="elb3r8blaog4s"><path d="M146.56,240.27c-2.13-.26-3.49-3.3-3.2-5.64s2.36-5,4.49-4.69a1.57,1.57,0,0,1,1.11.61c.62.8.43,2.11.2,3.78,0,.32-.09.66-.14,1s-.08.69-.11,1c-.18,1.67-.33,3-1.12,3.61A1.57,1.57,0,0,1,146.56,240.27Zm1.11-8.89c-.84-.1-2.59,1.24-2.86,3.43s1.09,3.91,1.93,4c.11,0,.13,0,.15,0,.31-.25.45-1.57.57-2.63,0-.33.07-.67.12-1s.09-.7.14-1c.14-1.05.33-2.37.09-2.68C147.8,231.42,147.78,231.4,147.67,231.38Z" id="elerqh1ll9vi6" style="transform-origin: 146.35px 235.102px 0px;" class="animable"></path></g></g><path d="M163.48,255.05s-27.06-21.72-29.35-13.73C131.08,252,162,261.11,162,261.11S164.84,261.6,163.48,255.05Z" style="fill: #407BFF; transform-origin: 148.884px 250.336px 0px;" id="elzxacletd1x" class="animable"></path><g id="elma1gnb44xuq"><path d="M160.47,258.81c2.69,1.5,2.3-1.61,1.2-5.18-1.76-1.36-4.64-3.51-7.89-5.74C154.5,250.78,156.41,256.56,160.47,258.81Z" style="opacity: 0.2; transform-origin: 158.144px 253.543px 0px;" class="animable" id="elyqgrn6xin5r"></path></g><g id="elkmpblo44cxk"><path d="M139.53,241.81l-1.57,2.5v5.29a43.49,43.49,0,0,0,8.93,5.61h0c-5.58-3.1-7-12.78-7-12.78Z" style="opacity: 0.2; transform-origin: 142.425px 248.51px 0px;" class="animable" id="ellc2twgmulfk"></path></g><path d="M107.13,238.61a3,3,0,0,0-3.06,3.07c.24,8.61.77,32.56-.44,41.95-.93,7.28-6.61,28.59-6.61,28.59l40.23-17.94s-.58-13.38,0-17.79c.53-4.08,3.9-11.79,4.23-15.88.27-3.38-1.27-10.1-1.37-13.49,0-1.22.1-3.77.2-5.48a1.68,1.68,0,0,0-1.61-1.78Z" style="fill: #407BFF; transform-origin: 119.266px 275.415px 0px;" id="elfc1602e9hdv" class="animable"></path><polygon points="197.06 371.15 199.8 382.97 194.06 384.29 190.62 373.29 197.06 371.15" style="fill: rgb(185, 121, 100); transform-origin: 195.21px 377.72px 0px;" id="elpa9uot33era" class="animable"></polygon><path d="M201.58,382.93a.18.18,0,0,1-.16-.1.17.17,0,0,1,0-.18c.09-.08,2.08-1.9,3.24-1.85a.88.88,0,0,1,.57.25.59.59,0,0,1,.16.67c-.19.41-1,.75-1.81.94A11.76,11.76,0,0,1,201.58,382.93Zm.45-.32c1.25-.13,2.9-.52,3.11-1,0-.06.05-.17-.11-.33a.44.44,0,0,0-.35-.15.82.82,0,0,0-.31,0A7.31,7.31,0,0,0,202,382.61Z" style="fill: #407BFF; transform-origin: 203.414px 381.865px 0px;" id="el02pdobwa1ekb" class="animable"></path><path d="M201.49,382.94a.17.17,0,0,1-.1-.13,4.53,4.53,0,0,1,.44-2.76,1.2,1.2,0,0,1,.81-.46c.43-.06.61.13.67.3.31.71-.94,2.48-1.65,3l-.06,0A.14.14,0,0,1,201.49,382.94Zm1.11-3a.8.8,0,0,0-.49.31,3.78,3.78,0,0,0-.42,2.21c.71-.67,1.49-2,1.34-2.45,0,0-.06-.14-.34-.1l-.09,0Z" style="fill: #407BFF; transform-origin: 202.347px 381.259px 0px;" id="elq7rivv2a51" class="animable"></path><path d="M200.7,382.16l-7.15,1.63a.59.59,0,0,0-.46.57l0,6.11a1,1,0,0,0,1,1l.21,0c2.56-.63,4.82-1.29,8-2,3.79-.86,2.93-.19,7.39-1.14,2.69-.57,2.49-3.73,1.32-3.62-5.35.52-6.25-.92-8.68-2.33A2.36,2.36,0,0,0,200.7,382.16Z" style="fill: rgb(38, 50, 56); transform-origin: 202.459px 386.786px 0px;" id="elv4cpvnxq7re" class="animable"></path><g id="elxjcmpqn0z5p"><polygon points="199.03 379.65 197.06 371.15 190.62 373.29 193.23 381.65 199.03 379.65" style="opacity: 0.1; transform-origin: 194.825px 376.4px 0px;" class="animable" id="elof89lvdy7v"></polygon></g><path d="M97.55,322c-3.55-8.53-1.06-22.32,26.73-27.52,22.81-4.28,37.64-2.58,45.45-.76a13.35,13.35,0,0,1,9.35,8c3.92,9.61,10.22,25.81,19.57,73.52l-7.06,3s-7.72-23.06-11.82-32.47c-3.7-8.48-11.65-21.88-14.12-34.23,0,0-10.92,3.83-24.17,10.14C124.87,329.55,104.59,338.94,97.55,322Z" style="fill: rgb(38, 50, 56); transform-origin: 147.469px 335.02px 0px;" id="elb0xk6cyzqkj" class="animable"></path><polygon points="190.18 376.4 191.9 380.57 199.8 377.63 198.98 373.29 190.18 376.4" style="fill: rgb(38, 50, 56); transform-origin: 194.99px 376.93px 0px;" id="elw1g3fcf9lvd" class="animable"></polygon><g id="elfkg5gpz04ja"><polygon points="190.18 376.4 191.9 380.57 199.8 377.63 198.98 373.29 190.18 376.4" style="fill: rgb(255, 255, 255); opacity: 0.2; transform-origin: 194.99px 376.93px 0px;" class="animable" id="elz6l0fbzvoo"></polygon></g><g id="eljpisa2cwmn"><path d="M165.43,311.59l.22-.08A82.71,82.71,0,0,0,171.74,329c1.49-6.46,3.27-15.6,1.95-17.37-2.1-2.8-8.26,0-8.26,0Z" style="opacity: 0.1; transform-origin: 169.791px 319.693px 0px;" class="animable" id="eld9r5m71l24f"></path></g><polygon points="146.13 392.81 144.33 404.67 150.02 404.67 153.19 393.29 146.13 392.81" style="fill: rgb(185, 121, 100); transform-origin: 148.76px 398.74px 0px;" id="elbfcyj8qhmbr" class="animable"></polygon><path d="M151.49,404.91a.17.17,0,0,1-.14-.12.17.17,0,0,1,.08-.17c.1-.06,2.4-1.46,3.53-1.19a.82.82,0,0,1,.51.36.59.59,0,0,1,0,.69,2.81,2.81,0,0,1-2,.57A11.78,11.78,0,0,1,151.49,404.91Zm.51-.22c1.25.12,2.94.06,3.24-.38,0-.06.08-.16,0-.35a.41.41,0,0,0-.32-.21,1,1,0,0,0-.3,0A7.23,7.23,0,0,0,152,404.69Z" style="fill: #407BFF; transform-origin: 153.465px 404.23px 0px;" id="elzwruflm823" class="animable"></path><path d="M151.4,404.91a.14.14,0,0,1-.07-.14,4.48,4.48,0,0,1,1-2.63,1.23,1.23,0,0,1,.88-.3c.44,0,.58.25.6.44.16.75-1.41,2.25-2.2,2.62a.09.09,0,0,1-.07,0Zm1.68-2.76a.86.86,0,0,0-.55.21,3.81,3.81,0,0,0-.83,2.09c.82-.52,1.84-1.69,1.79-2.14,0,0,0-.15-.32-.17Z" style="fill: #407BFF; transform-origin: 152.575px 403.374px 0px;" id="elhtpqnvqblva" class="animable"></path><path d="M150.78,404l-7.33.2a.59.59,0,0,0-.56.48l-1.17,6a1,1,0,0,0,.77,1.15.75.75,0,0,0,.21,0c2.64-.12,5-.33,8.27-.41,3.88-.1,2.91.39,7.47.33,2.75,0,3.17-3.18,2-3.3-5.35-.53-5.95-2.12-8.06-4A2.38,2.38,0,0,0,150.78,404Z" style="fill: rgb(38, 50, 56); transform-origin: 151.379px 407.915px 0px;" id="elr2k7b2sm2qs" class="animable"></path><g id="elhu1c8ps36zq"><polygon points="150.9 401.51 153.19 393.29 146.13 392.81 144.81 401.51 150.9 401.51" style="opacity: 0.1; transform-origin: 149px 397.16px 0px;" class="animable" id="eliwu6s22jyr"></polygon></g><path d="M171.3,315.39a7.4,7.4,0,0,0-5.87-3.8c-1.58.57-11.78,4.26-24,10.06-8.28,3.94-17.48,8.25-25.49,9.48h0l39.61-2.33c-3.89,11.3-4.83,28.94-6,38.64-1.14,9.41-4.59,29.47-4.59,29.47h7.59S174.65,321.57,171.3,315.39Z" style="fill: rgb(38, 50, 56); transform-origin: 143.793px 354.25px 0px;" id="elxrpxv9rcz2i" class="animable"></path><g id="eln8deq54s73"><path d="M171.3,315.39a7.4,7.4,0,0,0-5.87-3.8c-1.58.57-11.78,4.26-24,10.06-8.28,3.94-17.48,8.25-25.49,9.48h0l39.61-2.33c-3.89,11.3-4.83,28.94-6,38.64-1.14,9.41-4.59,29.47-4.59,29.47h7.59S174.65,321.57,171.3,315.39Z" style="opacity: 0.4; transform-origin: 143.793px 354.25px 0px;" class="animable" id="elr6xt3feddp"></path></g><polygon points="144.34 395.7 143.76 400.21 152.71 400.07 153.65 395.75 144.34 395.7" style="fill: rgb(38, 50, 56); transform-origin: 148.705px 397.955px 0px;" id="elidd7bf2rx09" class="animable"></polygon><g id="elqlp71udjskg"><polygon points="144.34 395.7 143.76 400.21 152.71 400.07 153.65 395.75 144.34 395.7" style="fill: rgb(255, 255, 255); opacity: 0.2; transform-origin: 148.705px 397.955px 0px;" class="animable" id="elcbi66wvvo4a"></polygon></g><path d="M158.61,238.69,157,235.64l-6.24-5.25a1.73,1.73,0,0,0-2.21,0L145.4,233a1.71,1.71,0,0,0-.59,1.67l.67,3.3A1.71,1.71,0,0,0,147,239.3c2,.15,5.74.27,6.63-.83l.93,2.73Z" style="fill: rgb(185, 121, 100); transform-origin: 151.692px 235.596px 0px;" id="elsm5foktdax" class="animable"></path><path d="M140.59,227.91h4a2.29,2.29,0,0,1,2.29,2.29v8a3.84,3.84,0,0,1-3.84,3.84h-.91a3.84,3.84,0,0,1-3.84-3.84v-8A2.29,2.29,0,0,1,140.59,227.91Z" style="fill: #407BFF; transform-origin: 142.585px 234.975px 0px;" id="elr76vac7gsc9" class="animable"></path><g id="elmkjpr3c25db"><path d="M140.59,227.91h4a2.29,2.29,0,0,1,2.29,2.29v8a3.84,3.84,0,0,1-3.84,3.84h-.91a3.84,3.84,0,0,1-3.84-3.84v-8A2.29,2.29,0,0,1,140.59,227.91Z" style="opacity: 0.4; transform-origin: 142.585px 234.975px 0px;" class="animable" id="elbvptkgc5vjd"></path></g><path d="M120.93,224.86c.46,4.27.62,12-2.56,14.57a48.49,48.49,0,0,0,10.26,7.29c5-3.45,2.78-7.15,2.78-7.15-4-1.12-4.16-5-3.11-8.17Z" style="fill: rgb(185, 121, 100); transform-origin: 125.136px 235.79px 0px;" id="elpwieebhp1kf" class="animable"></path><g id="elgdcloe9kmri"><path d="M128.3,231.4l-5-4.46-1.12.55s1.27,5.64,5.62,7.51A9.93,9.93,0,0,1,128.3,231.4Z" style="opacity: 0.1; transform-origin: 125.24px 230.97px 0px;" class="animable" id="eljgg2p9uutkh"></path></g><path d="M118.54,214.69c.21,7.05.14,10,3.57,13.76,5.16,5.6,13.76,3.81,15.68-3.15,1.71-6.26,1.1-16.72-5.69-19.75a9.62,9.62,0,0,0-13.56,9.14Z" style="fill: rgb(185, 121, 100); transform-origin: 128.566px 218.234px 0px;" id="el2w3vw3wimtl" class="animable"></path><path d="M124.76,202.08c-1.66,1.76.43,6.23,6.74,7.3,4.75.82,9.48,7.22,10.26,1.66C142.5,206,131.26,200.89,124.76,202.08Z" style="fill: rgb(46, 53, 58); transform-origin: 133.004px 207.597px 0px;" id="el65xxawx8boo" class="animable"></path><path d="M127.82,204.36c2.67,3.24-.54,7.28-2.57,9s-4.89,3-3.73,6.49.53,12.06-5.09,9.23-3.05-12.71-.26-16.89S124.63,200.51,127.82,204.36Z" style="fill: rgb(46, 53, 58); transform-origin: 120.962px 216.469px 0px;" id="elzt5618a7w8" class="animable"></path><path d="M133.85,218.14a15.32,15.32,0,0,0,1.92,3.73,2.47,2.47,0,0,1-2.05.32Z" style="fill: rgb(162, 78, 63); transform-origin: 134.745px 220.213px 0px;" id="eld1inhip8alm" class="animable"></path><path d="M126.61,214.08a.21.21,0,0,1-.12-.07.27.27,0,0,1,0-.39h0a3.28,3.28,0,0,1,2.84-1,.28.28,0,0,1,.21.33.28.28,0,0,1-.32.22,2.73,2.73,0,0,0-2.33.87A.27.27,0,0,1,126.61,214.08Z" style="fill: rgb(46, 53, 58); transform-origin: 127.976px 213.345px 0px;" id="elkzq87k17ajg" class="animable"></path><path d="M138.74,214.58a.47.47,0,0,1-.12-.07,2.74,2.74,0,0,0-2.38-.72.27.27,0,0,1-.34-.19h0a.28.28,0,0,1,.2-.34,3.29,3.29,0,0,1,2.9.85.27.27,0,0,1,0,.39.28.28,0,0,1-.29.09Z" style="fill: rgb(46, 53, 58); transform-origin: 137.487px 213.9px 0px;" id="elkysdc97hfik" class="animable"></path><path d="M129.84,217.07c0,.56.27,1,.65,1.05s.69-.43.7-1-.27-1-.64-1.06S129.86,216.49,129.84,217.07Z" style="fill: rgb(46, 53, 58); transform-origin: 130.515px 217.089px 0px;" id="eljs0g0vgtb9c" class="animable"></path><path d="M136.31,217.28c0,.57.27,1,.64,1.06s.69-.44.71-1-.27-1-.64-1S136.33,216.7,136.31,217.28Z" style="fill: rgb(46, 53, 58); transform-origin: 136.985px 217.342px 0px;" id="el4u2ds7nv1tl" class="animable"></path><path d="M136.86,216.29l1.39-.35S137.5,217,136.86,216.29Z" style="fill: rgb(46, 53, 58); transform-origin: 137.555px 216.237px 0px;" id="elamqlkh09keg" class="animable"></path><path d="M130.39,216.08l1.38-.35S131,216.78,130.39,216.08Z" style="fill: rgb(46, 53, 58); transform-origin: 131.08px 216.025px 0px;" id="elwda9tvv6l9" class="animable"></path><path d="M116.28,238.88a2.89,2.89,0,0,0-3.19,0s-1.46-.9-2.13-.12c0,0,9.53,18.19,8.15,30.61a176,176,0,0,0-1.26,20.29s3.44-1.59,5.16-1a4.83,4.83,0,0,0,3.53-.37s-.9-13.76-.76-20.19c.33-14.77-7.91-28.69-7.91-28.69Z" style="fill: #407BFF; transform-origin: 118.75px 264.03px 0px;" id="el6vdu8b82bee" class="animable"></path><g id="elsbvbz9ama5d"><path d="M116.28,238.88a2.89,2.89,0,0,0-3.19,0s-1.46-.9-2.13-.12c0,0,9.53,18.19,8.15,30.61a176,176,0,0,0-1.26,20.29s3.44-1.59,5.16-1a4.83,4.83,0,0,0,3.53-.37s-.9-13.76-.76-20.19c.33-14.77-7.91-28.69-7.91-28.69Z" style="opacity: 0.3; transform-origin: 118.75px 264.03px 0px;" class="animable" id="ele9s9p1374qe"></path></g><path d="M130.73,224.68a4.11,4.11,0,0,0,3,1,.16.16,0,0,0,.14-.14.13.13,0,0,0-.13-.14h0a3.88,3.88,0,0,1-3.17-1.32.14.14,0,0,0-.18,0h0a.15.15,0,0,0,0,.2C130.48,224.44,130.6,224.56,130.73,224.68Z" style="fill: rgb(46, 53, 58); transform-origin: 132.111px 224.869px 0px;" id="elfdqhjbksb3a" class="animable"></path><path d="M153.76,239.42s4,25.09,9.71,21.37c4.95-3.21-2.72-18.83-5-23.4a.69.69,0,0,0-1.18-.08A5.33,5.33,0,0,1,153.76,239.42Z" style="fill: #407BFF; transform-origin: 159.431px 249.09px 0px;" id="elqwcnj5qkafj" class="animable"></path><path d="M119.65,236.65s5.21,7.43,9.89,6c3.56-1.07-.26-4.23-.26-4.23a2.59,2.59,0,0,1,2.12.43s.72-.35,1.7.86c0,0,3.78,8.62-2.09,9.83-8.74,1.8-14.73-10.69-14.73-10.69s1.09-1.34,2.09-1C118.37,237.92,117.93,236.78,119.65,236.65Z" style="fill: #407BFF; transform-origin: 125.289px 243.184px 0px;" id="el764o6icqs8v" class="animable"></path><g id="els1alsr8ul8o"><path d="M119.65,236.65s5.21,7.43,9.89,6c3.56-1.07-.26-4.23-.26-4.23a2.59,2.59,0,0,1,2.12.43s.72-.35,1.7.86c0,0,3.78,8.62-2.09,9.83-8.74,1.8-14.73-10.69-14.73-10.69s1.09-1.34,2.09-1C118.37,237.92,117.93,236.78,119.65,236.65Z" style="opacity: 0.3; transform-origin: 125.289px 243.184px 0px;" class="animable" id="elmffkecta6ui"></path></g><g id="el9sq6vmpo915"><path d="M138,275.21l-13.45-.63L106.3,239.81a.9.9,0,0,0-.2.14,5.72,5.72,0,0,0-2,3.88c0,.86,0,1.79.06,2.81.76,5.54,5,14.9,15.47,31.63a6.22,6.22,0,0,0,5.53,2.92l12.77-.93C137.93,278.68,137.93,277,138,275.21Z" style="opacity: 0.2; transform-origin: 121.05px 260.503px 0px;" class="animable" id="eltkvmnrnpr1l"></path></g><g id="el3zeo8hdhcjr"><path d="M120.18,240.37s7.23,6.09,10.46,4.77c2.09-.86,1.26-3.57,1.26-3.57s2.8,5.15-1.14,5.85C126.33,248.2,120.18,240.37,120.18,240.37Z" style="opacity: 0.2; transform-origin: 126.522px 243.922px 0px;" class="animable" id="elyz198r2me9p"></path></g><g id="el5n0f91tv6kf"><path d="M116.86,240l3.5,4.93A7,7,0,0,1,116.86,240Z" style="opacity: 0.2; transform-origin: 118.61px 242.465px 0px;" class="animable" id="ellqgz0q8axoa"></path></g><path d="M132.3,239.61a3.78,3.78,0,0,1,3.44.13s1.29,6.57,2.15,10.87,1.21,9.72.37,18.39a143.69,143.69,0,0,0-.06,17.9,3.4,3.4,0,0,0-3.5,0,2.23,2.23,0,0,1-3.08-.62s.51-8.87,2-17.34a76.2,76.2,0,0,0-.19-24.05Z" style="fill: #407BFF; transform-origin: 135.18px 263.263px 0px;" id="el3w5carcgrl8" class="animable"></path><g id="elgtpy4hthfns"><path d="M132.3,239.61a3.78,3.78,0,0,1,3.44.13s1.29,6.57,2.15,10.87,1.21,9.72.37,18.39a143.69,143.69,0,0,0-.06,17.9,3.4,3.4,0,0,0-3.5,0,2.23,2.23,0,0,1-3.08-.62s.51-8.87,2-17.34a76.2,76.2,0,0,0-.19-24.05Z" style="opacity: 0.3; transform-origin: 135.18px 263.263px 0px;" class="animable" id="el98w371qlwgq"></path></g><g id="el16nt67nfomd"><path d="M133.41,241.2s1.37,1.68.69,5.52C134.1,246.72,136.59,244.55,133.41,241.2Z" style="opacity: 0.2; transform-origin: 134.219px 243.96px 0px;" class="animable" id="elcynd1eyy6sf"></path></g><path d="M117.11,222.52a5.14,5.14,0,0,0,3,2.52c1.73.52,2.63-1,2.18-2.67-.4-1.48-1.79-3.55-3.54-3.35a2.32,2.32,0,0,0-2,2.64A2.17,2.17,0,0,0,117.11,222.52Z" style="fill: rgb(185, 121, 100); transform-origin: 119.565px 222.075px 0px;" id="elx9wp22zf2zg" class="animable"></path><path d="M155.78,271.87h2.59l7.82-1.47a2.51,2.51,0,0,1,2.33.82l5.9,6.56-3.42.11-3.18-1.1s-4.62,2.37-11.5-.74Z" style="fill: rgb(185, 121, 100); transform-origin: 165.1px 274.126px 0px;" id="elymf8vb9mdqi" class="animable"></path><path d="M126.76,269.62s-15.91-35-21.34-29.69c-3.76,3.68-2.57,11.33,15.52,36.81a6.15,6.15,0,0,0,5.6,2.55l30.47-2a16.53,16.53,0,0,1,0-6.17Z" style="fill: #407BFF; transform-origin: 130.349px 259.35px 0px;" id="elw3phvxikmi" class="animable"></path></g><g id="freepik--Table--inject-2" style="transform-origin: 203.44px 346.315px 0px;" class="animable"><path d="M209.64,400.67l-.93-.55V293.35a2.19,2.19,0,0,0-2.18-2.18h-6.17a2.18,2.18,0,0,0-2.18,2.18V400.12l-.94.55A39.51,39.51,0,0,1,177.37,406h0a5.42,5.42,0,0,0-5.42,5.41h63a5.41,5.41,0,0,0-5.41-5.41h0A39.57,39.57,0,0,1,209.64,400.67Z" style="fill: #407BFF; transform-origin: 203.45px 351.29px 0px;" id="elhmueie05rg" class="animable"></path><g id="elv60hn049w1f"><path d="M208.71,298.75v-5.4a2.19,2.19,0,0,0-2.18-2.18h-6.17a2.18,2.18,0,0,0-2.18,2.18v5.4Z" style="opacity: 0.2; transform-origin: 203.445px 294.96px 0px;" class="animable" id="el3t0d161b6bt"></path></g><path d="M153.23,287.61H253.65a0,0,0,0,1,0,0v2.93a3.47,3.47,0,0,1-3.47,3.47H156.7a3.47,3.47,0,0,1-3.47-3.47v-2.93A0,0,0,0,1,153.23,287.61Z" style="fill: #407BFF; transform-origin: 203.44px 290.81px 0px;" id="elogaucsfoxf" class="animable"></path><g id="elmvhs942bfmf"><path d="M153.23,287.61H253.65a0,0,0,0,1,0,0v2.93a3.47,3.47,0,0,1-3.47,3.47H156.7a3.47,3.47,0,0,1-3.47-3.47v-2.93A0,0,0,0,1,153.23,287.61Z" style="fill: rgb(255, 255, 255); opacity: 0.3; transform-origin: 203.44px 290.81px 0px;" class="animable" id="eldtewnms6ptq"></path></g><rect x="146.44" y="281.22" width="114" height="6.4" rx="3.2" style="fill: #407BFF; transform-origin: 203.44px 284.42px 0px;" id="elyzsqwu9rj7h" class="animable"></rect><g id="elq7ufrfwqwzl"><rect x="146.44" y="281.22" width="114" height="6.4" rx="3.2" style="fill: rgb(255, 255, 255); opacity: 0.4; transform-origin: 203.44px 284.42px 0px;" class="animable" id="el7pazff1gtem"></rect></g><g id="eljcfk3xv7ehd"><path d="M204.47,292.3v-4.69H153.23v4.69a1.59,1.59,0,0,0,1.43,1.71H203A1.59,1.59,0,0,0,204.47,292.3Z" style="opacity: 0.2; transform-origin: 178.85px 290.81px 0px;" class="animable" id="el7qz36ys0gai"></path></g><g id="ele0w83k7imwo"><path d="M211.26,285.34V283.5a2.12,2.12,0,0,0-1.9-2.28h-61a2.12,2.12,0,0,0-1.91,2.28v1.84a2.11,2.11,0,0,0,1.91,2.27h61A2.11,2.11,0,0,0,211.26,285.34Z" style="opacity: 0.2; transform-origin: 178.855px 284.415px 0px;" class="animable" id="ely6ctnbli6pp"></path></g></g><g id="freepik--device-1--inject-2" style="transform-origin: 194.791px 263.445px 0px;" class="animable"><path d="M217.56,281.15H184.11a3.26,3.26,0,0,1-3.26-3.26h40A3.26,3.26,0,0,1,217.56,281.15Z" style="fill: rgb(38, 50, 56); transform-origin: 200.85px 279.52px 0px;" id="el6dnkha1rjlf" class="animable"></path><g id="elwnt81v1h76"><path d="M217.56,281.15H184.11a3.26,3.26,0,0,1-3.26-3.26h40A3.26,3.26,0,0,1,217.56,281.15Z" style="fill: rgb(255, 255, 255); opacity: 0.2; transform-origin: 200.85px 279.52px 0px;" class="animable" id="elru9h5z2jmn"></path></g><path d="M194.19,281.15H160.74a3.26,3.26,0,0,1-3.26-3.26h40A3.26,3.26,0,0,1,194.19,281.15Z" style="fill: rgb(38, 50, 56); transform-origin: 177.48px 279.52px 0px;" id="elzhvpf565co" class="animable"></path><g id="elf79wjhb072t"><path d="M194.19,281.15H160.74a3.26,3.26,0,0,1-3.26-3.26h40A3.26,3.26,0,0,1,194.19,281.15Z" style="fill: rgb(255, 255, 255); opacity: 0.5; transform-origin: 177.48px 279.52px 0px;" class="animable" id="eltdua2qkz6x"></path></g><path d="M217.83,280.16h-20.4a.77.77,0,0,1-.72-1l11.18-31.95a2.2,2.2,0,0,1,2.07-1.47h20.39a.77.77,0,0,1,.73,1L219.9,278.69A2.2,2.2,0,0,1,217.83,280.16Z" style="fill: rgb(38, 50, 56); transform-origin: 213.895px 262.95px 0px;" id="el0w0pep9yw2n9" class="animable"></path><g id="elphzzjv7psuc"><path d="M217.83,280.16h-20.4a.77.77,0,0,1-.72-1l11.18-31.95a2.2,2.2,0,0,1,2.07-1.47h20.39a.77.77,0,0,1,.73,1L219.9,278.69A2.2,2.2,0,0,1,217.83,280.16Z" style="fill: rgb(255, 255, 255); opacity: 0.5; transform-origin: 213.895px 262.95px 0px;" class="animable" id="elolfv4xcnixg"></path></g><path d="M218.81,280.16H198.42a.77.77,0,0,1-.73-1l11.18-31.95a2.2,2.2,0,0,1,2.07-1.47h20.4a.78.78,0,0,1,.73,1l-11.19,31.95A2.2,2.2,0,0,1,218.81,280.16Z" style="fill: rgb(38, 50, 56); transform-origin: 214.878px 262.95px 0px;" id="elpic3po41dvp" class="animable"></path><g id="elx7h1ka5z08g"><path d="M218.81,280.16H198.42a.77.77,0,0,1-.73-1l11.18-31.95a2.2,2.2,0,0,1,2.07-1.47h20.4a.78.78,0,0,1,.73,1l-11.19,31.95A2.2,2.2,0,0,1,218.81,280.16Z" style="fill: rgb(255, 255, 255); opacity: 0.7; transform-origin: 214.878px 262.95px 0px;" class="animable" id="elv6neemlmk2"></path></g><path d="M216.53,262.94c-.26,1.22-1.11,2.21-1.89,2.21s-1.21-1-.95-2.21,1.11-2.22,1.89-2.22S216.79,261.71,216.53,262.94Z" style="fill: rgb(255, 255, 255); transform-origin: 215.11px 262.935px 0px;" id="el2avq8bdh92f" class="animable"></path></g><defs>     <filter id="active" height="200%">         <feMorphology in="SourceAlpha" result="DILATED" operator="dilate" radius="2"></feMorphology>                <feFlood flood-color="#32DFEC" flood-opacity="1" result="PINK"></feFlood>        <feComposite in="PINK" in2="DILATED" operator="in" result="OUTLINE"></feComposite>        <feMerge>            <feMergeNode in="OUTLINE"></feMergeNode>            <feMergeNode in="SourceGraphic"></feMergeNode>        </feMerge>    </filter>    <filter id="hover" height="200%">        <feMorphology in="SourceAlpha" result="DILATED" operator="dilate" radius="2"></feMorphology>                <feFlood flood-color="#ff0000" flood-opacity="0.5" result="PINK"></feFlood>        <feComposite in="PINK" in2="DILATED" operator="in" result="OUTLINE"></feComposite>        <feMerge>            <feMergeNode in="OUTLINE"></feMergeNode>            <feMergeNode in="SourceGraphic"></feMergeNode>        </feMerge>            <feColorMatrix type="matrix" values="0   0   0   0   0                0   1   0   0   0                0   0   0   0   0                0   0   0   1   0 "></feColorMatrix>    </filter></defs></svg>